# xmcd
#
# Track frame offsets: 
#        150
#        13272
#        25364
#        50195
#        63949
#        74387
#        87947
#        98877
#        111554
#        125337
#        136655
#        153369
#
# Disc length: 2172 seconds
#
# Revision: 0
# Processed by: cddbd v1.5.2PL0 Copyright (c) Steve Scherf et al.
# Submitted via: ExactAudioCopyFreeDBPlugin 1.0
#
DISCID=a7087a0c
DTITLE=Gloria Lynne - The Best of Gloria Lynne
DYEAR=1900
DGENRE=Blues
TTITLE0=Impossible
TTITLE1=But Not For Me
TTITLE2=I'm Glad There Is You
TTITLE3=Serenade In Blue
TTITLE4=Tower Of Strength
TTITLE5=I Should Care
TTITLE6=The Jazz In You
TTITLE7=He Needs Me
TTITLE8=I Will Follow You
TTITLE9=June Night
TTITLE10=I Wish You Love
TTITLE11=This Little Boy Of Mine
EXTD=
EXTT0=
EXTT1=
EXTT2=
EXTT3=
EXTT4=
EXTT5=
EXTT6=
EXTT7=
EXTT8=
EXTT9=
EXTT10=
EXTT11=
PLAYORDER=
